<svg xmlns="http://www.w3.org/2000/svg" viewBox="0 0 512 512">
  <defs>
    <linearGradient id="g" x1="0" y1="0" x2="1" y2="1">
      <stop offset="0" stop-color="#0ea5e9" stop-opacity="0.95" />
      <stop offset="0.55" stop-color="#a855f7" stop-opacity="0.95" />
      <stop offset="1" stop-color="#f97316" stop-opacity="0.98" />
    </linearGradient>
    <filter id="shadow" x="-20%" y="-20%" width="140%" height="140%">
      <feDropShadow dx="0" dy="16" stdDeviation="18" flood-color="#000" flood-opacity="0.35" />
    </filter>
  </defs>
  <rect width="512" height="512" rx="120" fill="#050505"/>
  <rect x="64" y="64" width="384" height="384" rx="110" fill="url(#g)" filter="url(#shadow)"/>
  <path
    d="M156 270c22-64 68-104 128-104 67 0 116 46 134 124 5 22-8 43-30 48-20 5-41-7-47-28-10-40-28-64-57-64-28 0-50 18-63 53-9 24-14 55-15 90 0 21-17 38-38 38h-1c-21 0-38-17-38-38 1-42 8-83 27-119z"
    fill="#fff"
    fill-opacity="0.92"
  />
  <path
    d="M160 346c10-10 26-10 36 0l14 14 24-24c10-10 26-10 36 0 10 10 10 26 0 36l-42 42c-10 10-26 10-36 0l-32-32c-10-10-10-26 0-36z"
    fill="#fff"
    fill-opacity="0.92"
  />
</svg>

