<svg width="512" height="512" viewBox="0 0 512 512" fill="none" xmlns="http://www.w3.org/2000/svg">
  <rect width="512" height="512" rx="128" fill="#0D0906"/>
  <rect x="34" y="34" width="444" height="444" rx="112" fill="url(#paint0_linear)"/>
  <path d="M177 225H205V287H177C165.954 287 157 278.046 157 267V245C157 233.954 165.954 225 177 225Z" fill="#F59E0B"/>
  <path d="M307 225H335C346.046 225 355 233.954 355 245V267C355 278.046 346.046 287 335 287H307V225Z" fill="#F59E0B"/>
  <rect x="205" y="237" width="102" height="38" rx="19" fill="url(#paint1_linear)"/>
  <rect x="126" y="213" width="31" height="86" rx="15.5" fill="#FFF1D6" fill-opacity="0.92"/>
  <rect x="355" y="213" width="31" height="86" rx="15.5" fill="#FFF1D6" fill-opacity="0.92"/>
  <path d="M170 163C197 136 226 122 257 122C288 122 317 136 344 163" stroke="#FDBA74" stroke-width="16" stroke-linecap="round"/>
  <path d="M170 349C197 376 226 390 257 390C288 390 317 376 344 349" stroke="#60A5FA" stroke-width="16" stroke-linecap="round"/>
  <defs>
    <linearGradient id="paint0_linear" x1="58" y1="56" x2="441" y2="458" gradientUnits="userSpaceOnUse">
      <stop stop-color="#25140A"/>
      <stop offset="0.5" stop-color="#13161F"/>
      <stop offset="1" stop-color="#1F0E08"/>
    </linearGradient>
    <linearGradient id="paint1_linear" x1="213" y1="240" x2="300" y2="273" gradientUnits="userSpaceOnUse">
      <stop stop-color="#F97316"/>
      <stop offset="0.52" stop-color="#FBBF24"/>
      <stop offset="1" stop-color="#60A5FA"/>
    </linearGradient>
  </defs>
</svg>
